<?xml version="1.0" encoding="UTF-8" standalone="no"?>
<!-- Created with Inkscape (http://www.inkscape.org/) -->

<svg
   width="160mm"
   height="160mm"
   viewBox="0 0 160 160"
   version="1.1"
   id="svg1"
   xmlns="http://www.w3.org/2000/svg"
   xmlns:svg="http://www.w3.org/2000/svg">
  <defs
     id="defs1" />
  <g
     id="layer1">
    <path
       style="color:#000000;display:inline;fill:#3967ff;stroke-linecap:round;stroke-linejoin:round;stroke-miterlimit:2;stroke-dasharray:240, 64;-inkscape-stroke:none;paint-order:stroke fill markers"
       d="M 80,7 A 4,4 0 0 0 77.171875,8.171875 4,4 0 0 0 76,11 c 5.78e-4,3.061701 -0.436822,6.177201 -1.189453,9.261719 -0.799791,3.276165 -1.946168,6.51904 -3.308594,9.71875 -2.024613,4.742517 -4.497929,9.358502 -7.169922,13.927734 a 4,4 0 0 0 1.433594,5.472656 4,4 0 0 0 5.472656,-1.433593 c 2.771244,-4.738956 5.411232,-9.648333 7.623047,-14.830079 a 4.0004,4.0004 0 0 0 0.002,-0.0039 C 79.272485,32.152251 79.623246,31.153283 80,30.169922 c 0.271971,0.709931 0.509628,1.440623 0.798828,2.138672 a 4.0004,4.0004 0 0 0 0.002,0.0039 c 2.199144,5.294891 4.862682,10.300632 7.664063,15.125 a 4.0004,4.0004 0 0 0 0.002,0.002 c 5.102738,8.768956 10.735358,17.032198 15.914059,25.394531 2.82804,4.573601 5.5211,9.156526 7.83203,13.857422 1.76218,3.597411 3.28593,7.235885 4.3457,10.931641 0.72312,2.528992 1.21693,5.068962 1.38086,7.576172 a 4.0004,4.0004 0 0 0 0.002,0.008 c 0.11282,1.67849 0.0647,3.35358 -0.15821,4.98633 a 4.0004,4.0004 0 0 0 -0.002,0.01 c -0.35602,2.65365 -1.12717,5.30317 -2.20312,7.86914 -1.19962,2.8563 -2.76551,5.59346 -4.59961,8.17187 -2.0831,2.92409 -4.49634,5.62714 -7.16602,8.05273 -2.52742,2.29311 -5.270378,4.32529 -8.189449,6.01368 -2.527235,1.45961 -5.17289,2.65107 -7.888672,3.47461 C 85.17441,144.56072 82.558848,144.99997 80,145 c -2.558848,-3e-5 -5.17441,-0.43928 -7.734375,-1.21484 -2.715782,-0.82354 -5.361437,-2.015 -7.888672,-3.47461 h -0.002 c -2.917758,-1.68778 -5.659098,-3.71974 -8.185547,-6.01172 l -0.002,-0.002 c -2.669684,-2.42559 -5.082916,-5.12864 -7.166016,-8.05273 l -0.002,-0.002 c -1.833428,-2.57776 -3.398385,-5.31444 -4.597656,-8.16992 l -0.002,-0.002 c -1.075452,-2.56524 -1.845262,-5.21433 -2.201172,-7.86718 a 4.0004,4.0004 0 0 0 -0.002,-0.008 c -0.209523,-1.53973 -0.265106,-3.1131 -0.175781,-4.68554 a 4.0004,4.0004 0 0 0 0,-0.006 c 0.04836,-0.87962 0.137661,-1.76246 0.263671,-2.64258 a 4,4 0 0 0 -3.392578,-4.525393 4,4 0 0 0 -4.527343,3.392583 c -0.157864,1.10259 -0.270437,2.21558 -0.332032,3.33593 l 0.002,-0.008 c -0.117228,2.06365 -0.0453,4.14717 0.236329,6.2168 0.464916,3.45916 1.445572,6.77709 2.751953,9.89258 a 4.0004,4.0004 0 0 0 0.002,0.002 c 1.45501,3.46508 3.319455,6.70981 5.457031,9.71484 a 4.0004,4.0004 0 0 0 0.002,0.002 c 2.427058,3.40731 5.223606,6.53312 8.306641,9.33398 a 4.0004,4.0004 0 0 0 0.002,0.002 c 2.917607,2.64713 6.113068,5.02161 9.560547,7.01563 a 4.0004,4.0004 0 0 0 0.002,0.002 c 2.98768,1.7257 6.184747,3.17708 9.568359,4.20313 a 4.0004,4.0004 0 0 0 0.002,0 C 73.145971,152.41108 76.530966,152.99996 80,153 c 3.469034,-4e-5 6.854029,-0.58892 10.054687,-1.55859 a 4.0004,4.0004 0 0 0 0.002,0 c 3.383612,-1.02605 6.580679,-2.47743 9.568359,-4.20313 a 4.0004,4.0004 0 0 0 0.002,-0.002 c 3.447474,-1.99402 6.642934,-4.3685 9.560544,-7.01563 a 4.0004,4.0004 0 0 0 0.002,-0.002 c 3.08304,-2.80086 5.87959,-5.92667 8.30664,-9.33398 a 4.0004,4.0004 0 0 0 0.002,-0.002 c 2.13757,-3.00503 4.00202,-6.24976 5.45703,-9.71484 a 4.0004,4.0004 0 0 0 0.002,-0.002 c 1.30614,-3.11491 2.28693,-6.43216 2.75195,-9.89063 0.30067,-2.20228 0.36105,-4.41533 0.21485,-6.59766 v -0.002 c -0.20916,-3.19636 -0.82723,-6.291101 -1.67383,-9.251952 a 4.0004,4.0004 0 0 0 0,-0.0039 c -1.23605,-4.311316 -2.9575,-8.379871 -4.85547,-12.253906 a 4.0004,4.0004 0 0 0 -0.002,-0.0039 c -2.48836,-5.061817 -5.31892,-9.865265 -8.20899,-14.539062 a 4.0004,4.0004 0 0 0 -0.002,-0.002 C 105.88097,60.061817 100.29421,51.859646 95.382812,43.419922 l -0.002,-0.0039 C 92.682391,38.768652 90.194796,34.072417 88.189453,29.244141 86.867745,26.053481 85.767961,22.821219 85.023437,19.558594 84.372586,16.705617 83.999536,13.829172 84,11 A 4,4 0 0 0 82.828125,8.171875 4,4 0 0 0 80,7 Z"
       id="path3" />
  </g>
</svg>
